<?xml version="1.0" encoding="UTF-8"?>
<svg width="6672px" height="2449px" viewBox="0 0 6672 2449" version="1.1" xmlns="http://www.w3.org/2000/svg" xmlns:xlink="http://www.w3.org/1999/xlink">
    <!-- Generator: Sketch 45.2 (43514) - http://www.bohemiancoding.com/sketch -->
    <title>Full Logo</title>
    <desc>Created with Sketch.</desc>
    <defs>
        <text id="text-1" font-family="Niconne-Regular, Niconne" font-size="1250" font-weight="normal" fill="#4B5E40">
            <tspan x="2287" y="1533">Verdaccio</tspan>
        </text>
        <filter x="-1.4%" y="-3.9%" width="102.8%" height="108.1%" filterUnits="objectBoundingBox" id="filter-2">
            <feOffset dx="1" dy="2" in="SourceAlpha" result="shadowOffsetOuter1"></feOffset>
            <feGaussianBlur stdDeviation="20" in="shadowOffsetOuter1" result="shadowBlurOuter1"></feGaussianBlur>
            <feColorMatrix values="0 0 0 0 0.490196078   0 0 0 0 0.490196078   0 0 0 0 0.490196078  0 0 0 0.5 0" type="matrix" in="shadowBlurOuter1"></feColorMatrix>
        </filter>
        <filter x="-4.2%" y="-3.8%" width="108.6%" height="107.8%" filterUnits="objectBoundingBox" id="filter-3">
            <feOffset dx="1" dy="2" in="SourceAlpha" result="shadowOffsetOuter1"></feOffset>
            <feGaussianBlur stdDeviation="20" in="shadowOffsetOuter1" result="shadowBlurOuter1"></feGaussianBlur>
            <feColorMatrix values="0 0 0 0 0.490196078   0 0 0 0 0.490196078   0 0 0 0 0.490196078  0 0 0 0.5 0" type="matrix" in="shadowBlurOuter1" result="shadowMatrixOuter1"></feColorMatrix>
            <feMerge>
                <feMergeNode in="shadowMatrixOuter1"></feMergeNode>
                <feMergeNode in="SourceGraphic"></feMergeNode>
            </feMerge>
        </filter>
    </defs>
    <g id="Page-1" stroke="none" stroke-width="1" fill="none" fill-rule="evenodd">
        <g id="Full-Logo" transform="translate(64.000000, 63.000000)">
            <g id="Logo-Title" stroke="#4B5E40">
                <use fill="#4B5E40" fill-opacity="1" stroke-opacity="1" filter="url(#filter-2)" xlink:href="#text-1"></use>
                <use fill="#4B5E40" fill-opacity="1" stroke-opacity="1" xlink:href="#text-1"></use>
                <use xlink:href="#text-1"></use>
            </g>
            <g id="Logo" filter="url(#filter-3)">
                <polygon id="Background" stroke="#FFFFFF" stroke-width="50" fill="#4B5E40" points="1004.07568 0 2008.15136 579.703365 2008.15136 1739.1101 1004.07568 2318.81346 8.81072992e-13 1739.1101 2.55795385e-13 579.703365"></polygon>
                <g id="olive" transform="translate(1004.237430, 1179.561391) scale(-1, 1) rotate(-25.000000) translate(-1004.237430, -1179.561391) translate(403.737430, 675.561391)">
                    <path d="M1163.01227,697.692429 C1078.35032,832.672282 935.985677,939.169615 766.6212,993.613331 C428.763277,1102.23049 82.8852673,973.359056 -4.702781,700.821244 C-92.2896794,428.287011 113.713513,122.036752 451.572137,13.4412474 C627.835506,-43.2091201 813.03834,-36.8895723 963.417227,30.4303786 C965.657096,31.3448675 967.208332,31.9670905 973.042001,34.2945307 C992.476678,42.0483256 1001.53086,46.0942689 1012.68638,52.1577158 C1028.72827,60.877097 1042.8573,71.0936687 1056.13441,83.6974603 C1112.10688,136.820722 1161.3428,221.936971 1192.57027,319.092528 C1220.54716,406.139051 1231.2363,493.966015 1222.55624,566.148056 C1216.66234,615.016673 1202.83831,644.951582 1165.18667,694.814023 C1165.01347,695.043389 1164.66039,695.510787 1163.73857,696.730995 L1163.73847,696.731123 C1163.44913,697.114122 1163.20967,697.431105 1163.01227,697.692429 Z" id="Shape" stroke="#FFFFFF" stroke-width="50"></path>
                    <path d="M1108.37579,380.564209 C1108.37579,241.844501 1059.07869,129.389958 998.267636,129.389958 C937.456585,129.389958 888.159486,241.844501 888.159486,380.564209 C888.159486,519.283919 937.456585,631.738459 998.267636,631.738459 C1059.07869,631.738459 1108.37579,519.283919 1108.37579,380.564209" id="Shape" fill="#CB410B" fill-rule="nonzero" transform="translate(998.267638, 380.564209) rotate(-17.818513) translate(-998.267638, -380.564209) "></path>
                    <path d="M896.486395,125.786269 C849.615431,165.543765 843.256147,286.557026 884.972011,416.340223 C931.899939,562.344042 1022.0464,664.126787 1086.04938,643.54512 C1118.4405,633.134442 1137.66418,593.384007 1142.98675,537.759057 C1137.11483,542.751015 1130.71431,546.665475 1123.58215,548.95787 C1059.57917,569.530193 969.432709,467.756788 922.504784,321.752971 C899.275506,249.481321 891.221016,180.128425 896.486624,125.78399 L896.486395,125.786269 Z" id="Shape" fill="#3A3E24" fill-rule="nonzero"></path>
                    <path d="M207.013165,306.698941 C239.506812,271.218184 275.892133,239.300996 315.303298,211.708395 C374.257133,170.431141 440.019116,138.924083 509.089478,118.718371 M623.925733,95.9915008 C688.181632,89.1291232 753.444625,91.6603059 816.950896,103.629023" id="Shape" stroke="#FFFFFF" stroke-width="50" stroke-linecap="round"></path>
                </g>
            </g>
        </g>
    </g>
</svg>