<?xml version="1.0" encoding="UTF-8"?>
<svg width="1210px" height="1210px" viewBox="0 0 1210 1210" version="1.1" xmlns="http://www.w3.org/2000/svg" xmlns:xlink="http://www.w3.org/1999/xlink">
    <!-- Generator: Sketch 46.2 (44496) - http://www.bohemiancoding.com/sketch -->
    <title>Logo</title>
    <desc>Created with Sketch.</desc>
    <defs></defs>
    <g id="Page-1" stroke="none" stroke-width="1" fill="none" fill-rule="evenodd">
        <g id="verdaccio-circle-flat-full" transform="translate(0.000000, -270.000000)">
            <g id="Logo" transform="translate(0.000000, 270.000000)">
                <circle id="Oval" fill="#4B5E40" fill-rule="nonzero" cx="604.801465" cy="604.801465" r="604.801465"></circle>
                <g id="olive" transform="translate(604.331788, 604.432442) scale(-1, 1) rotate(-25.000000) translate(-604.331788, -604.432442) translate(224.831788, 283.932442)">
                    <path d="M720.187799,438.10513 C668.864673,519.931594 582.561457,584.4916 479.890607,617.496057 C275.076936,683.341129 65.4013895,605.217664 12.3044263,440.001856 C-40.7918397,274.788218 84.0898551,89.135506 288.903951,23.3035618 C395.756995,-11.0385949 508.029254,-7.20760645 599.190804,33.6025842 C600.54864,34.1569588 601.489019,34.5341581 605.025462,35.9450812 C616.807004,40.645528 622.295762,43.0982291 629.058377,46.773966 C638.78317,52.0597632 647.348363,58.2531759 655.397112,65.893751 C689.328319,98.0977323 719.175745,149.69626 738.106226,208.593166 C755.066164,261.36185 761.546054,314.603646 756.284093,358.361296 C752.711138,387.986059 744.330839,406.132973 721.505947,436.360204 C721.400951,436.499249 721.18691,436.782591 720.628091,437.522297 L720.62803,437.522374 C720.452629,437.754553 720.307465,437.946712 720.187799,438.10513 Z" id="Shape" stroke="#FFFFFF" stroke-width="50"></path>
                    <path d="M687.066486,245.858063 C687.066486,161.764452 657.181971,93.5931108 620.317555,93.5931108 C583.45314,93.5931108 553.568626,161.764452 553.568626,245.858063 C553.568626,329.951674 583.45314,398.123014 620.317555,398.123014 C657.181971,398.123014 687.066486,329.951674 687.066486,245.858063" id="Shape" fill="#CB410B" fill-rule="nonzero" transform="translate(620.317556, 245.858062) rotate(-17.818513) translate(-620.317556, -245.858062) "></path>
                    <path d="M558.616502,91.4085098 C530.202741,115.509998 526.347664,188.86974 551.636339,267.545927 C580.084632,356.055256 634.732537,417.757221 673.531939,405.280358 C693.167838,398.969276 704.821472,374.872068 708.04808,341.151533 C704.488449,344.17772 700.608374,346.550714 696.28477,347.940392 C657.485369,360.41159 602.837464,298.715287 574.389173,210.205959 C560.307296,166.393987 555.424564,124.3514 558.616641,91.4071282 L558.616502,91.4085098 Z" id="Shape" fill="#3A3E24" fill-rule="nonzero"></path>
                    <path d="M140.649263,201.080019 C160.347316,179.571144 182.40455,160.222548 206.296087,143.49557 C242.034635,118.472786 281.900366,99.3728158 323.771678,87.1238622 M393.386842,73.3465511 C432.339566,69.1864925 471.902804,70.7209269 510.401094,77.9765119" id="Shape" stroke="#FFFFFF" stroke-width="50" stroke-linecap="round"></path>
                </g>
            </g>
        </g>
    </g>
</svg>